<svg width="602" height="850" xmlns="http://www.w3.org/2000/svg" xmlns:xlink="http://www.w3.org/1999/xlink" overflow="hidden">
  <defs>
    <clipPath id="clip0">
      <rect x="950" y="446" width="602" height="850"/>
    </clipPath>
  </defs>
  <g clip-path="url(#clip0)" transform="translate(-950 -446)">
    <path d="M1251 616.423C1178.89 616.423 1120.43 674.882 1120.43 746.994 1120.43 819.107 1178.89 877.566 1251 877.566 1323.11 877.566 1381.57 819.107 1381.57 746.994 1381.57 674.882 1323.11 616.423 1251 616.423ZM1251 446C1417.24 446 1552 580.759 1552 746.994 1552 830.112 1518.31 905.36 1463.84 959.829L1457.71 964.889 1545.7 1296 1368.7 1296 1301.44 1042.9 1251 1047.99 1196.37 1042.48 1134.72 1296 962.888 1296 1043.55 964.278 1038.16 959.829C983.691 905.36 950 830.112 950 746.994 950 580.759 1084.76 446 1251 446Z"
    fill="#4472C4" fill-rule="evenodd"/>
  </g>
</svg>
